<svg id="Layer_1" data-name="Layer 1" xmlns="http://www.w3.org/2000/svg" viewBox="0 0 98.36 95.93"><defs><style>.cls-1{fill:#fff;fill-rule:evenodd;}</style></defs><title>github</title><path class="cls-1" d="M49.74,2A49.18,49.18,0,0,0,34.2,97.84c2.46.45,3.36-1.06,3.36-2.37,0-1.16-.05-4.26-.07-8.36-13.68,3-16.57-6.59-16.57-6.59-2.23-5.68-5.46-7.2-5.46-7.2-4.46-3,.34-3,.34-3,4.94.35,7.54,5.07,7.54,5.07,4.38,7.52,11.51,5.35,14.31,4.09a10.46,10.46,0,0,1,3.12-6.58c-10.92-1.24-22.4-5.46-22.4-24.3a19,19,0,0,1,5.06-13.2c-.5-1.24-2.19-6.24.48-13,0,0,4.13-1.33,13.53,5a46.47,46.47,0,0,1,24.62,0c9.39-6.37,13.51-5,13.51-5,2.68,6.77,1,11.77.49,13a19,19,0,0,1,5.06,13.2c0,18.89-11.5,23-22.46,24.26C60.43,74.39,62,77.39,62,82c0,6.58-.06,11.88-.06,13.49,0,1.32.89,2.85,3.38,2.37A49.19,49.19,0,0,0,49.74,2Z" transform="translate(-0.57 -2)"/></svg>