<svg id="Layer_1" data-name="Layer 1" xmlns="http://www.w3.org/2000/svg" viewBox="0 0 10000 77"><defs><style>.cls-1{fill:#6effe5;}</style></defs><title>Wave1</title><path class="cls-1" d="M9674,23c-131,0-292,35-393,35s-139-23-250-23-294,47-380,47-170-47-265-47-165,28-230,28-128-13-156-13c-168,0-195-27-326-27s-292,35-393,35-139-23-250-23-294,47-380,47-170-47-265-47-165,28-230,28-128-13-156-13c-168,0-195-27-326-27s-292,35-393,35-139-23-250-23-294,47-380,47-170-47-265-47-165,28-230,28-128-13-156-13c-168,0-195-27-326-27s-292,35-393,35-139-23-250-23-294,47-380,47-170-47-265-47-165,28-230,28-128-13-156-13c-168,0-195-27-326-27s-292,35-393,35-139-23-250-23S737,82,651,82,481,35,386,35,221,63,156,63,28,50,0,50v50H10000V50C9832,50,9805,23,9674,23Z" transform="translate(0 -23)"/></svg>